<svg width="2024" height="903" viewBox="0 0 2024 903" fill="none" xmlns="http://www.w3.org/2000/svg">
<path d="M451 131C497.257 131 542.963 141.028 584.971 160.394C626.979 179.76 664.289 208.003 694.33 243.177C724.371 278.35 746.43 319.619 758.986 364.139C771.542 408.659 774.296 455.372 767.06 501.059C759.824 546.746 742.769 590.321 717.07 628.782C691.371 667.243 657.64 699.676 618.2 723.845C578.759 748.014 534.548 763.345 488.612 768.782C442.676 774.219 396.107 769.632 352.115 755.338L411.446 572.735C429.043 578.453 447.67 580.288 466.045 578.113C484.419 575.938 502.104 569.806 517.88 560.138C533.656 550.47 547.149 537.497 557.428 522.113C567.708 506.729 574.53 489.298 577.424 471.024C580.319 452.749 579.217 434.064 574.194 416.256C569.172 398.448 560.348 381.94 548.332 367.871C536.315 353.801 521.392 342.504 504.588 334.758C487.785 327.011 469.503 323 451 323L451 131Z" fill="#00BAF2"/>
<path d="M264.273 721.989C199.92 678.049 153.811 612.138 134.597 536.621C115.383 461.104 124.384 381.171 159.912 311.818L330.794 399.357C316.583 427.098 312.983 459.071 320.668 489.278C328.354 519.485 346.798 545.85 372.539 563.425L264.273 721.989Z" fill="#E01563"/>
<path d="M206.141 244.757C249.674 193.069 308.452 156.49 374.052 140.262L420.159 326.643C393.919 333.135 370.408 347.766 352.995 368.441L206.141 244.757Z" fill="#3EB991"/>
<path d="M1049.25 637.25C1019.58 637.25 993.25 634.417 970.25 628.75C947.25 623.083 924.333 612.417 901.5 596.75V502.25H969.25L976.75 550.75C982.083 556.75 991.5 561.833 1005 566C1018.5 570 1033.25 572 1049.25 572C1060.42 572 1069.75 570.667 1077.25 568C1084.75 565.167 1090.42 561.083 1094.25 555.75C1098.08 550.417 1100 544 1100 536.5C1100 529.333 1098.17 522.917 1094.5 517.25C1091 511.583 1085.17 506.25 1077 501.25C1068.83 496.083 1057.83 490.833 1044 485.5C1012.83 475.5 987.25 465.333 967.25 455C947.25 444.667 932.333 432.417 922.5 418.25C912.833 404.083 908 386.5 908 365.5C908 345.333 913.75 327.75 925.25 312.75C936.75 297.583 952.583 285.667 972.75 277C992.917 268.333 1016 263.75 1042 263.25C1071.67 262.583 1097.92 265.583 1120.75 272.25C1143.58 278.75 1163.75 288.667 1181.25 302V389.75H1116.25L1106 341C1100.33 338.167 1092.25 335.583 1081.75 333.25C1071.25 330.917 1060.08 329.75 1048.25 329.75C1038.08 329.75 1029 331.083 1021 333.75C1013.17 336.417 1006.92 340.417 1002.25 345.75C997.75 351.083 995.5 357.75 995.5 365.75C995.5 372.25 997.417 378.083 1001.25 383.25C1005.08 388.25 1011.83 393.333 1021.5 398.5C1031.17 403.5 1044.67 409.333 1062 416C1103.33 428.167 1134.67 443.417 1156 461.75C1177.5 479.917 1188.25 504.667 1188.25 536C1188.25 557.5 1182.42 575.833 1170.75 591C1159.08 606 1142.83 617.5 1122 625.5C1101.17 633.333 1076.92 637.25 1049.25 637.25ZM1213.75 736V684.5L1247.25 676.5V421L1209.25 413V361.5H1329.5L1332.5 392C1339.83 380.667 1348.67 371.917 1359 365.75C1369.33 359.583 1382 356.5 1397 356.5C1418.33 356.5 1436.67 362.417 1452 374.25C1467.33 385.917 1479.08 402.333 1487.25 423.5C1495.58 444.667 1499.75 469.25 1499.75 497.25V502.5C1499.75 529.5 1495.58 553.167 1487.25 573.5C1479.08 593.667 1467.25 609.333 1451.75 620.5C1436.25 631.667 1417.58 637.25 1395.75 637.25C1382.42 637.25 1370.67 634.75 1360.5 629.75C1350.5 624.75 1341.83 617.417 1334.5 607.75V676.5L1365 684.5V736H1213.75ZM1369.75 570.5C1385.58 570.5 1396.58 564.583 1402.75 552.75C1408.92 540.75 1412 524 1412 502.5V497.25C1412 482.417 1410.58 469.5 1407.75 458.5C1404.92 447.5 1400.33 439 1394 433C1387.83 426.833 1379.58 423.75 1369.25 423.75C1361.75 423.75 1354.92 425.417 1348.75 428.75C1342.75 432.083 1338 437.083 1334.5 443.75V554C1338 559.5 1342.83 563.667 1349 566.5C1355.17 569.167 1362.08 570.5 1369.75 570.5ZM1517.5 632V580.75L1549.5 572.75V301.5L1511.5 293.5V242H1637.25V572.75L1669 580.75V632H1517.5ZM1683.5 632V580.75L1715.25 572.75V421L1677.5 413V361.5H1803V572.75L1834.5 580.75V632H1683.5ZM1712.75 310.25V242H1803V310.25H1712.75ZM1966 637.75C1937.67 637.75 1916.08 630.25 1901.25 615.25C1886.58 600.083 1879.25 576.167 1879.25 543.5V422H1845.5V361.5H1879.25V294.75H1966.5V361.5H2010.75V422H1966.5V543.25C1966.5 552.083 1968.5 558.25 1972.5 561.75C1976.5 565.25 1982 567 1989 567C1992 567 1995 566.833 1998 566.5C2001 566.167 2004 565.75 2007 565.25L2013 630.75C2005.33 632.917 1997.58 634.583 1989.75 635.75C1982.08 637.083 1974.17 637.75 1966 637.75Z" fill="white"/>
</svg>
